<mxfile host="app.diagrams.net" agent="Mozilla/5.0 (Windows NT 10.0; Win64; x64) AppleWebKit/537.36 (KHTML, like Gecko) Chrome/131.0.0.0 Safari/537.36" version="26.0.7">
  <diagram name="Page-1" id="OLhsVw5iGFLMb12BJvLk">
    <mxGraphModel dx="2899" dy="1054" grid="1" gridSize="10" guides="1" tooltips="1" connect="1" arrows="1" fold="1" page="1" pageScale="1" pageWidth="850" pageHeight="1100" math="0" shadow="0">
      <root>
        <mxCell id="0" />
        <mxCell id="1" parent="0" />
        <mxCell id="VihSnKJ8d2gTm0RwI6Mq-1" value="External API" style="whiteSpace=wrap;html=1;aspect=fixed;fontStyle=1" parent="1" vertex="1">
          <mxGeometry x="-350" y="480" width="100" height="100" as="geometry" />
        </mxCell>
        <mxCell id="VihSnKJ8d2gTm0RwI6Mq-40" style="edgeStyle=orthogonalEdgeStyle;rounded=0;orthogonalLoop=1;jettySize=auto;html=1;exitX=0.5;exitY=0;exitDx=0;exitDy=0;entryX=0.5;entryY=1;entryDx=0;entryDy=0;" parent="1" source="VihSnKJ8d2gTm0RwI6Mq-3" target="VihSnKJ8d2gTm0RwI6Mq-8" edge="1">
          <mxGeometry relative="1" as="geometry" />
        </mxCell>
        <mxCell id="VihSnKJ8d2gTm0RwI6Mq-3" value="&lt;div&gt;PriceUpdate API 1&lt;/div&gt;&lt;div&gt;&lt;br&gt;&lt;/div&gt;&lt;div&gt;&lt;br&gt;&lt;/div&gt;" style="rounded=1;whiteSpace=wrap;html=1;direction=south;fontStyle=1" parent="1" vertex="1">
          <mxGeometry x="140" y="260" width="80" height="240" as="geometry" />
        </mxCell>
        <mxCell id="VihSnKJ8d2gTm0RwI6Mq-42" style="edgeStyle=orthogonalEdgeStyle;rounded=0;orthogonalLoop=1;jettySize=auto;html=1;entryX=0;entryY=0.5;entryDx=0;entryDy=0;" parent="1" source="VihSnKJ8d2gTm0RwI6Mq-8" target="VihSnKJ8d2gTm0RwI6Mq-19" edge="1">
          <mxGeometry relative="1" as="geometry" />
        </mxCell>
        <mxCell id="VihSnKJ8d2gTm0RwI6Mq-8" value="&lt;div&gt;PriceUpdate&lt;/div&gt;&lt;div&gt;Message&amp;nbsp;&lt;/div&gt;&lt;div&gt;Broker&lt;/div&gt;&lt;div&gt;&lt;br&gt;&lt;/div&gt;" style="rounded=1;whiteSpace=wrap;html=1;direction=south;fontStyle=1" parent="1" vertex="1">
          <mxGeometry x="300" y="300" width="70" height="440" as="geometry" />
        </mxCell>
        <mxCell id="VihSnKJ8d2gTm0RwI6Mq-15" value="" style="edgeStyle=orthogonalEdgeStyle;rounded=0;orthogonalLoop=1;jettySize=auto;html=1;" parent="1" source="VihSnKJ8d2gTm0RwI6Mq-11" target="VihSnKJ8d2gTm0RwI6Mq-14" edge="1">
          <mxGeometry relative="1" as="geometry" />
        </mxCell>
        <mxCell id="VihSnKJ8d2gTm0RwI6Mq-11" value="User&lt;div&gt;&lt;br&gt;&lt;/div&gt;" style="whiteSpace=wrap;html=1;aspect=fixed;fontStyle=1" parent="1" vertex="1">
          <mxGeometry x="1060" y="20" width="80" height="80" as="geometry" />
        </mxCell>
        <mxCell id="VihSnKJ8d2gTm0RwI6Mq-17" value="" style="edgeStyle=orthogonalEdgeStyle;rounded=0;orthogonalLoop=1;jettySize=auto;html=1;" parent="1" source="VihSnKJ8d2gTm0RwI6Mq-14" edge="1">
          <mxGeometry relative="1" as="geometry">
            <mxPoint x="1100" y="630" as="targetPoint" />
          </mxGeometry>
        </mxCell>
        <mxCell id="VihSnKJ8d2gTm0RwI6Mq-53" style="edgeStyle=orthogonalEdgeStyle;rounded=0;orthogonalLoop=1;jettySize=auto;html=1;exitX=0.25;exitY=1;exitDx=0;exitDy=0;entryX=1;entryY=0.5;entryDx=0;entryDy=0;entryPerimeter=0;" parent="1" source="VihSnKJ8d2gTm0RwI6Mq-14" target="VihSnKJ8d2gTm0RwI6Mq-64" edge="1">
          <mxGeometry relative="1" as="geometry">
            <mxPoint x="990" y="940" as="targetPoint" />
          </mxGeometry>
        </mxCell>
        <mxCell id="VihSnKJ8d2gTm0RwI6Mq-14" value="&lt;div&gt;FlightManagment API&lt;/div&gt;&lt;div&gt;&lt;br&gt;&lt;/div&gt;" style="rounded=1;whiteSpace=wrap;html=1;direction=south;fontStyle=1" parent="1" vertex="1">
          <mxGeometry x="1050" y="230" width="100" height="240" as="geometry" />
        </mxCell>
        <mxCell id="VihSnKJ8d2gTm0RwI6Mq-56" style="edgeStyle=orthogonalEdgeStyle;rounded=0;orthogonalLoop=1;jettySize=auto;html=1;entryX=0.5;entryY=1;entryDx=0;entryDy=0;" parent="1" source="VihSnKJ8d2gTm0RwI6Mq-19" target="VihSnKJ8d2gTm0RwI6Mq-44" edge="1">
          <mxGeometry relative="1" as="geometry" />
        </mxCell>
        <mxCell id="VihSnKJ8d2gTm0RwI6Mq-60" style="edgeStyle=orthogonalEdgeStyle;rounded=0;orthogonalLoop=1;jettySize=auto;html=1;exitX=0.5;exitY=1;exitDx=0;exitDy=0;entryX=0;entryY=0.5;entryDx=0;entryDy=0;entryPerimeter=0;" parent="1" source="VihSnKJ8d2gTm0RwI6Mq-19" target="VihSnKJ8d2gTm0RwI6Mq-64" edge="1">
          <mxGeometry relative="1" as="geometry">
            <mxPoint x="910" y="940" as="targetPoint" />
          </mxGeometry>
        </mxCell>
        <mxCell id="VihSnKJ8d2gTm0RwI6Mq-19" value="PriceUpdate Consumer&lt;div&gt;&lt;br&gt;&lt;/div&gt;&lt;div&gt;&lt;br&gt;&lt;/div&gt;" style="whiteSpace=wrap;html=1;aspect=fixed;fontStyle=1" parent="1" vertex="1">
          <mxGeometry x="450" y="480" width="80" height="80" as="geometry" />
        </mxCell>
        <mxCell id="VihSnKJ8d2gTm0RwI6Mq-39" value="" style="edgeStyle=orthogonalEdgeStyle;rounded=0;orthogonalLoop=1;jettySize=auto;html=1;" parent="1" source="VihSnKJ8d2gTm0RwI6Mq-29" target="VihSnKJ8d2gTm0RwI6Mq-8" edge="1">
          <mxGeometry relative="1" as="geometry" />
        </mxCell>
        <mxCell id="VihSnKJ8d2gTm0RwI6Mq-41" style="edgeStyle=orthogonalEdgeStyle;rounded=0;orthogonalLoop=1;jettySize=auto;html=1;" parent="1" source="VihSnKJ8d2gTm0RwI6Mq-29" edge="1">
          <mxGeometry relative="1" as="geometry">
            <mxPoint x="250" y="680" as="targetPoint" />
          </mxGeometry>
        </mxCell>
        <mxCell id="VihSnKJ8d2gTm0RwI6Mq-29" value="&lt;div&gt;PriceUpdate API 2&lt;/div&gt;&lt;div&gt;&lt;br&gt;&lt;/div&gt;&lt;div&gt;&lt;br&gt;&lt;/div&gt;" style="rounded=1;whiteSpace=wrap;html=1;direction=south;fontStyle=1" parent="1" vertex="1">
          <mxGeometry x="140" y="560" width="80" height="240" as="geometry" />
        </mxCell>
        <mxCell id="VihSnKJ8d2gTm0RwI6Mq-49" style="edgeStyle=orthogonalEdgeStyle;rounded=0;orthogonalLoop=1;jettySize=auto;html=1;exitX=0.5;exitY=0;exitDx=0;exitDy=0;entryX=0;entryY=0.5;entryDx=0;entryDy=0;" parent="1" source="VihSnKJ8d2gTm0RwI6Mq-44" target="VihSnKJ8d2gTm0RwI6Mq-47" edge="1">
          <mxGeometry relative="1" as="geometry" />
        </mxCell>
        <mxCell id="VihSnKJ8d2gTm0RwI6Mq-44" value="Push notifications message broker&lt;div&gt;&lt;br&gt;&lt;/div&gt;" style="rounded=1;whiteSpace=wrap;html=1;direction=south;fontStyle=1" parent="1" vertex="1">
          <mxGeometry x="670" y="300" width="100" height="440" as="geometry" />
        </mxCell>
        <mxCell id="VihSnKJ8d2gTm0RwI6Mq-58" style="edgeStyle=orthogonalEdgeStyle;rounded=0;orthogonalLoop=1;jettySize=auto;html=1;exitX=1;exitY=0.5;exitDx=0;exitDy=0;entryX=0;entryY=0.5;entryDx=0;entryDy=0;" parent="1" source="VihSnKJ8d2gTm0RwI6Mq-47" target="VihSnKJ8d2gTm0RwI6Mq-11" edge="1">
          <mxGeometry relative="1" as="geometry" />
        </mxCell>
        <mxCell id="VihSnKJ8d2gTm0RwI6Mq-47" value="&lt;div&gt;Push notification&amp;nbsp;&lt;/div&gt;&lt;div&gt;consumer&lt;/div&gt;&lt;div&gt;&lt;br&gt;&lt;/div&gt;" style="whiteSpace=wrap;html=1;aspect=fixed;fontStyle=1" parent="1" vertex="1">
          <mxGeometry x="860" y="140" width="80" height="80" as="geometry" />
        </mxCell>
        <mxCell id="VihSnKJ8d2gTm0RwI6Mq-61" value="Users and Alerts DB&lt;div&gt;&lt;br&gt;&lt;/div&gt;" style="shape=cylinder3;whiteSpace=wrap;html=1;boundedLbl=1;backgroundOutline=1;size=15;fontStyle=1" parent="1" vertex="1">
          <mxGeometry x="1060" y="630" width="80" height="120" as="geometry" />
        </mxCell>
        <mxCell id="VihSnKJ8d2gTm0RwI6Mq-64" value="User&#39;s alerts in memory DB&lt;div&gt;(redis)&lt;/div&gt;&lt;div&gt;&lt;br&gt;&lt;div&gt;&lt;br&gt;&lt;/div&gt;&lt;/div&gt;" style="shape=cylinder3;whiteSpace=wrap;html=1;boundedLbl=1;backgroundOutline=1;size=15;fontStyle=1" parent="1" vertex="1">
          <mxGeometry x="770" y="870" width="90" height="130" as="geometry" />
        </mxCell>
        <mxCell id="VihSnKJ8d2gTm0RwI6Mq-68" style="edgeStyle=orthogonalEdgeStyle;rounded=0;orthogonalLoop=1;jettySize=auto;html=1;entryX=0.5;entryY=1;entryDx=0;entryDy=0;" parent="1" source="VihSnKJ8d2gTm0RwI6Mq-65" target="VihSnKJ8d2gTm0RwI6Mq-29" edge="1">
          <mxGeometry relative="1" as="geometry" />
        </mxCell>
        <mxCell id="VihSnKJ8d2gTm0RwI6Mq-65" value="" style="points=[];aspect=fixed;html=1;align=center;shadow=0;dashed=0;fillColor=#FF6A00;strokeColor=none;shape=mxgraph.alibaba_cloud.alb_application_load_balancer_01;" parent="1" vertex="1">
          <mxGeometry x="-117" y="470.21" width="117.4" height="99.57" as="geometry" />
        </mxCell>
        <mxCell id="VihSnKJ8d2gTm0RwI6Mq-66" style="edgeStyle=orthogonalEdgeStyle;rounded=0;orthogonalLoop=1;jettySize=auto;html=1;exitX=1;exitY=0.5;exitDx=0;exitDy=0;entryX=0.296;entryY=0.606;entryDx=0;entryDy=0;entryPerimeter=0;" parent="1" source="VihSnKJ8d2gTm0RwI6Mq-1" target="VihSnKJ8d2gTm0RwI6Mq-65" edge="1">
          <mxGeometry relative="1" as="geometry" />
        </mxCell>
        <mxCell id="VihSnKJ8d2gTm0RwI6Mq-67" style="edgeStyle=orthogonalEdgeStyle;rounded=0;orthogonalLoop=1;jettySize=auto;html=1;entryX=0.555;entryY=0.933;entryDx=0;entryDy=0;entryPerimeter=0;exitX=0.741;exitY=0.5;exitDx=0;exitDy=0;exitPerimeter=0;" parent="1" source="VihSnKJ8d2gTm0RwI6Mq-65" target="VihSnKJ8d2gTm0RwI6Mq-3" edge="1">
          <mxGeometry relative="1" as="geometry" />
        </mxCell>
        <mxCell id="VihSnKJ8d2gTm0RwI6Mq-70" value="PriceUpdate Load Balancer&lt;div&gt;&lt;br&gt;&lt;/div&gt;" style="text;html=1;align=center;verticalAlign=middle;whiteSpace=wrap;rounded=0;fontStyle=1" parent="1" vertex="1">
          <mxGeometry x="-150" y="390" width="171.7" height="80" as="geometry" />
        </mxCell>
      </root>
    </mxGraphModel>
  </diagram>
</mxfile>
